<svg xmlns="http://www.w3.org/2000/svg" width="7680" height="3291" viewBox="0 0 7680 3291">
<defs>
  <marker id="arrow" viewBox="0 0 10 10" refX="9" refY="5" markerWidth="8" markerHeight="8" orient="auto-start-reverse">
    <path d="M 0 0 L 10 5 L 0 10 z" fill="#222"/>
  </marker>
  <filter id="softShadow" x="-10%" y="-10%" width="120%" height="120%">
    <feDropShadow dx="0" dy="3" stdDeviation="4" flood-color="#000000" flood-opacity="0.08"/>
  </filter>
</defs>
<rect x="0" y="0" width="7680" height="3291" fill="#f7f7f7"/>

<rect id="panel_left" x="40" y="40" width="3640" height="2580" rx="120" ry="120" fill="#ffffff" fill-opacity="1" stroke="#0b69c7" stroke-width="12" stroke-dasharray="38 38"/>
<rect id="panel_right" x="3750" y="40" width="3850" height="2580" rx="120" ry="120" fill="#ffffff" fill-opacity="1" stroke="#ef6b6b" stroke-width="12" stroke-dasharray="38 38"/>
<text id="title_left" x="1860" y="178" font-family="Times New Roman, STIX Two Text, serif" font-size="86" font-weight="700" font-style="normal" fill="#111" text-anchor="middle">
<tspan x="1860" dy="0">Multiresolution neural field</tspan>
</text>
<text id="title_right" x="5675" y="178" font-family="Times New Roman, STIX Two Text, serif" font-size="86" font-weight="700" font-style="normal" fill="#111" text-anchor="middle">
<tspan x="5675" dy="0">Boundary-informed constraint and regularized learning</tspan>
</text>
<text id="query_label" x="310" y="430" font-family="Times New Roman, serif" font-size="60" font-weight="400" font-style="normal" fill="#111" text-anchor="middle">
<tspan x="310" dy="0">query point</tspan>
<tspan x="310" dy="72.0">p = (x, y, z)</tspan>
</text>
<circle id="in_x" cx="310" cy="720" r="120" fill="#fff2cc" stroke="#e0b13a" stroke-width="5"/>
<text id="in_x_txt" x="310" y="740" font-family="STIX Two Math, Cambria Math, Times New Roman, serif" font-size="92" font-weight="400" font-style="italic" fill="#111" text-anchor="middle">
<tspan x="310" dy="0">x</tspan>
</text>
<circle id="in_y" cx="310" cy="1050" r="120" fill="#fff2cc" stroke="#e0b13a" stroke-width="5"/>
<text id="in_y_txt" x="310" y="1070" font-family="STIX Two Math, Cambria Math, Times New Roman, serif" font-size="92" font-weight="400" font-style="italic" fill="#111" text-anchor="middle">
<tspan x="310" dy="0">y</tspan>
</text>
<circle id="in_z" cx="310" cy="1380" r="120" fill="#fff2cc" stroke="#e0b13a" stroke-width="5"/>
<text id="in_z_txt" x="310" y="1400" font-family="STIX Two Math, Cambria Math, Times New Roman, serif" font-size="92" font-weight="400" font-style="italic" fill="#111" text-anchor="middle">
<tspan x="310" dy="0">z</tspan>
</text>
<rect id="normalize_box" x="560" y="780" width="500" height="530" rx="35" ry="35" fill="#fff2cc" fill-opacity="1" stroke="#e0b13a" stroke-width="5"/>
<text id="normalize_txt" x="810" y="900" font-family="Times New Roman, serif" font-size="54" font-weight="400" font-style="normal" fill="#111" text-anchor="middle">
<tspan x="810" dy="0">Geometry-dependent</tspan>
<tspan x="810" dy="64.8">normalization</tspan>
</text>
<rect id="norm_cube_front" x="710" y="1069.5" width="170" height="170" rx="0" ry="0" fill="none" fill-opacity="1" stroke="#3c78b5" stroke-width="4"/>
<path id="norm_cube_top" d="M710 1069.5 L769.5 1010 L939.5 1010 L880 1069.5" fill="none" stroke="#3c78b5" stroke-width="4"/>
<path id="norm_cube_side" d="M880 1069.5 L939.5 1010 L939.5 1180 L880 1239.5" fill="none" stroke="#3c78b5" stroke-width="4"/>
<circle id="norm_cube_pt" cx="803.5" cy="1154.5" r="8" fill="#e74c3c" stroke="#e74c3c" stroke-width="2"/>
<text id="normalize_math" x="810" y="1250" font-family="STIX Two Math, Cambria Math, Times New Roman, serif" font-size="72" font-weight="400" font-style="italic" fill="#111" text-anchor="middle">
<tspan x="810" dy="0">p → p̂</tspan>
</text>
<line id="arrow_xyz_norm1" x1="430" y1="720" x2="560" y2="920" stroke="#222" stroke-width="5" marker-end="url(#arrow)"/>
<line id="arrow_xyz_norm2" x1="430" y1="1050" x2="560" y2="1035" stroke="#222" stroke-width="5" marker-end="url(#arrow)"/>
<line id="arrow_xyz_norm3" x1="430" y1="1380" x2="560" y2="1150" stroke="#222" stroke-width="5" marker-end="url(#arrow)"/>
<text id="hash_title" x="1640" y="380" font-family="Times New Roman, serif" font-size="62" font-weight="700" font-style="normal" fill="#111" text-anchor="middle">
<tspan x="1640" dy="0">HashGrid encoder</tspan>
<tspan x="1640" dy="74.39999999999999">(16 levels, 2 features / level)</tspan>
</text>
<text id="level_lbl_0" x="1210" y="630" font-family="Times New Roman, serif" font-size="50" font-weight="400" font-style="normal" fill="#111" text-anchor="end">
<tspan x="1210" dy="0">coarse</tspan>
<tspan x="1210" dy="60.0">(level 0)</tspan>
</text>
<rect id="grid_0_front" x="1320" y="583.5" width="210" height="210" rx="0" ry="0" fill="none" fill-opacity="1" stroke="#3c78b5" stroke-width="4"/>
<path id="grid_0_top" d="M1320 583.5 L1393.5 510 L1603.5 510 L1530 583.5" fill="none" stroke="#3c78b5" stroke-width="4"/>
<path id="grid_0_side" d="M1530 583.5 L1603.5 510 L1603.5 720 L1530 793.5" fill="none" stroke="#3c78b5" stroke-width="4"/>
<line id="grid_0_gv1" x1="1425.0" y1="583.5" x2="1425.0" y2="793.5" stroke="#3c78b5" stroke-width="2"/>
<line id="grid_0_gh1" x1="1320" y1="688.5" x2="1530" y2="688.5" stroke="#3c78b5" stroke-width="2"/>
<circle id="grid_0_pt" cx="1435.5" cy="688.5" r="8" fill="#e74c3c" stroke="#e74c3c" stroke-width="2"/>
<rect id="feat_0_1" x="1770" y="635" width="70" height="75" rx="0" ry="0" fill="#dae8fc" fill-opacity="1" stroke="#6c8ebf" stroke-width="4"/>
<rect id="feat_0_2" x="1843" y="635" width="70" height="75" rx="0" ry="0" fill="#eaf2ff" fill-opacity="1" stroke="#6c8ebf" stroke-width="4"/>
<line id="grid_feat_arrow_0" x1="1650" y1="675" x2="1765" y2="675" stroke="#222" stroke-width="4" marker-end="url(#arrow)"/>
<text id="level_lbl_1" x="1210" y="940" font-family="Times New Roman, serif" font-size="50" font-weight="400" font-style="normal" fill="#111" text-anchor="end">
<tspan x="1210" dy="0">level 1</tspan>
</text>
<rect id="grid_1_front" x="1320" y="907.5" width="250" height="250" rx="0" ry="0" fill="none" fill-opacity="1" stroke="#3c78b5" stroke-width="4"/>
<path id="grid_1_top" d="M1320 907.5 L1407.5 820 L1657.5 820 L1570 907.5" fill="none" stroke="#3c78b5" stroke-width="4"/>
<path id="grid_1_side" d="M1570 907.5 L1657.5 820 L1657.5 1070 L1570 1157.5" fill="none" stroke="#3c78b5" stroke-width="4"/>
<line id="grid_1_gv1" x1="1382.5" y1="907.5" x2="1382.5" y2="1157.5" stroke="#3c78b5" stroke-width="2"/>
<line id="grid_1_gh1" x1="1320" y1="970.0" x2="1570" y2="970.0" stroke="#3c78b5" stroke-width="2"/>
<line id="grid_1_gv2" x1="1445.0" y1="907.5" x2="1445.0" y2="1157.5" stroke="#3c78b5" stroke-width="2"/>
<line id="grid_1_gh2" x1="1320" y1="1032.5" x2="1570" y2="1032.5" stroke="#3c78b5" stroke-width="2"/>
<line id="grid_1_gv3" x1="1507.5" y1="907.5" x2="1507.5" y2="1157.5" stroke="#3c78b5" stroke-width="2"/>
<line id="grid_1_gh3" x1="1320" y1="1095.0" x2="1570" y2="1095.0" stroke="#3c78b5" stroke-width="2"/>
<circle id="grid_1_pt" cx="1457.5" cy="1032.5" r="8" fill="#e74c3c" stroke="#e74c3c" stroke-width="2"/>
<rect id="feat_1_1" x="1770" y="945" width="70" height="75" rx="0" ry="0" fill="#dae8fc" fill-opacity="1" stroke="#6c8ebf" stroke-width="4"/>
<rect id="feat_1_2" x="1843" y="945" width="70" height="75" rx="0" ry="0" fill="#eaf2ff" fill-opacity="1" stroke="#6c8ebf" stroke-width="4"/>
<line id="grid_feat_arrow_1" x1="1690" y1="985" x2="1765" y2="985" stroke="#222" stroke-width="4" marker-end="url(#arrow)"/>
<text id="level_lbl_2" x="1210" y="1250" font-family="Times New Roman, serif" font-size="50" font-weight="400" font-style="normal" fill="#111" text-anchor="end">
<tspan x="1210" dy="0">level 2</tspan>
</text>
<rect id="grid_2_front" x="1320" y="1229.75" width="285" height="285" rx="0" ry="0" fill="none" fill-opacity="1" stroke="#3c78b5" stroke-width="4"/>
<path id="grid_2_top" d="M1320 1229.75 L1419.75 1130 L1704.75 1130 L1605 1229.75" fill="none" stroke="#3c78b5" stroke-width="4"/>
<path id="grid_2_side" d="M1605 1229.75 L1704.75 1130 L1704.75 1415 L1605 1514.75" fill="none" stroke="#3c78b5" stroke-width="4"/>
<line id="grid_2_gv1" x1="1360.7142857142858" y1="1229.75" x2="1360.7142857142858" y2="1514.75" stroke="#3c78b5" stroke-width="2"/>
<line id="grid_2_gh1" x1="1320" y1="1270.4642857142858" x2="1605" y2="1270.4642857142858" stroke="#3c78b5" stroke-width="2"/>
<line id="grid_2_gv2" x1="1401.4285714285713" y1="1229.75" x2="1401.4285714285713" y2="1514.75" stroke="#3c78b5" stroke-width="2"/>
<line id="grid_2_gh2" x1="1320" y1="1311.1785714285713" x2="1605" y2="1311.1785714285713" stroke="#3c78b5" stroke-width="2"/>
<line id="grid_2_gv3" x1="1442.142857142857" y1="1229.75" x2="1442.142857142857" y2="1514.75" stroke="#3c78b5" stroke-width="2"/>
<line id="grid_2_gh3" x1="1320" y1="1351.892857142857" x2="1605" y2="1351.892857142857" stroke="#3c78b5" stroke-width="2"/>
<line id="grid_2_gv4" x1="1482.857142857143" y1="1229.75" x2="1482.857142857143" y2="1514.75" stroke="#3c78b5" stroke-width="2"/>
<line id="grid_2_gh4" x1="1320" y1="1392.607142857143" x2="1605" y2="1392.607142857143" stroke="#3c78b5" stroke-width="2"/>
<line id="grid_2_gv5" x1="1523.5714285714287" y1="1229.75" x2="1523.5714285714287" y2="1514.75" stroke="#3c78b5" stroke-width="2"/>
<line id="grid_2_gh5" x1="1320" y1="1433.3214285714287" x2="1605" y2="1433.3214285714287" stroke="#3c78b5" stroke-width="2"/>
<line id="grid_2_gv6" x1="1564.2857142857142" y1="1229.75" x2="1564.2857142857142" y2="1514.75" stroke="#3c78b5" stroke-width="2"/>
<line id="grid_2_gh6" x1="1320" y1="1474.0357142857142" x2="1605" y2="1474.0357142857142" stroke="#3c78b5" stroke-width="2"/>
<circle id="grid_2_pt" cx="1476.75" cy="1372.25" r="8" fill="#e74c3c" stroke="#e74c3c" stroke-width="2"/>
<rect id="feat_2_1" x="1770" y="1255" width="70" height="75" rx="0" ry="0" fill="#dae8fc" fill-opacity="1" stroke="#6c8ebf" stroke-width="4"/>
<rect id="feat_2_2" x="1843" y="1255" width="70" height="75" rx="0" ry="0" fill="#eaf2ff" fill-opacity="1" stroke="#6c8ebf" stroke-width="4"/>
<line id="grid_feat_arrow_2" x1="1725" y1="1295" x2="1765" y2="1295" stroke="#222" stroke-width="4" marker-end="url(#arrow)"/>
<text id="level_lbl_3" x="1210" y="1620" font-family="Times New Roman, serif" font-size="50" font-weight="400" font-style="normal" fill="#111" text-anchor="end">
<tspan x="1210" dy="0">fine</tspan>
<tspan x="1210" dy="60.0">(level 15)</tspan>
</text>
<rect id="grid_3_front" x="1320" y="1610.25" width="315" height="315" rx="0" ry="0" fill="none" fill-opacity="1" stroke="#3c78b5" stroke-width="4"/>
<path id="grid_3_top" d="M1320 1610.25 L1430.25 1500 L1745.25 1500 L1635 1610.25" fill="none" stroke="#3c78b5" stroke-width="4"/>
<path id="grid_3_side" d="M1635 1610.25 L1745.25 1500 L1745.25 1815 L1635 1925.25" fill="none" stroke="#3c78b5" stroke-width="4"/>
<line id="grid_3_gv1" x1="1351.5" y1="1610.25" x2="1351.5" y2="1925.25" stroke="#3c78b5" stroke-width="2"/>
<line id="grid_3_gh1" x1="1320" y1="1641.75" x2="1635" y2="1641.75" stroke="#3c78b5" stroke-width="2"/>
<line id="grid_3_gv2" x1="1383.0" y1="1610.25" x2="1383.0" y2="1925.25" stroke="#3c78b5" stroke-width="2"/>
<line id="grid_3_gh2" x1="1320" y1="1673.25" x2="1635" y2="1673.25" stroke="#3c78b5" stroke-width="2"/>
<line id="grid_3_gv3" x1="1414.5" y1="1610.25" x2="1414.5" y2="1925.25" stroke="#3c78b5" stroke-width="2"/>
<line id="grid_3_gh3" x1="1320" y1="1704.75" x2="1635" y2="1704.75" stroke="#3c78b5" stroke-width="2"/>
<line id="grid_3_gv4" x1="1446.0" y1="1610.25" x2="1446.0" y2="1925.25" stroke="#3c78b5" stroke-width="2"/>
<line id="grid_3_gh4" x1="1320" y1="1736.25" x2="1635" y2="1736.25" stroke="#3c78b5" stroke-width="2"/>
<line id="grid_3_gv5" x1="1477.5" y1="1610.25" x2="1477.5" y2="1925.25" stroke="#3c78b5" stroke-width="2"/>
<line id="grid_3_gh5" x1="1320" y1="1767.75" x2="1635" y2="1767.75" stroke="#3c78b5" stroke-width="2"/>
<line id="grid_3_gv6" x1="1509.0" y1="1610.25" x2="1509.0" y2="1925.25" stroke="#3c78b5" stroke-width="2"/>
<line id="grid_3_gh6" x1="1320" y1="1799.25" x2="1635" y2="1799.25" stroke="#3c78b5" stroke-width="2"/>
<line id="grid_3_gv7" x1="1540.5" y1="1610.25" x2="1540.5" y2="1925.25" stroke="#3c78b5" stroke-width="2"/>
<line id="grid_3_gh7" x1="1320" y1="1830.75" x2="1635" y2="1830.75" stroke="#3c78b5" stroke-width="2"/>
<line id="grid_3_gv8" x1="1572.0" y1="1610.25" x2="1572.0" y2="1925.25" stroke="#3c78b5" stroke-width="2"/>
<line id="grid_3_gh8" x1="1320" y1="1862.25" x2="1635" y2="1862.25" stroke="#3c78b5" stroke-width="2"/>
<line id="grid_3_gv9" x1="1603.5" y1="1610.25" x2="1603.5" y2="1925.25" stroke="#3c78b5" stroke-width="2"/>
<line id="grid_3_gh9" x1="1320" y1="1893.75" x2="1635" y2="1893.75" stroke="#3c78b5" stroke-width="2"/>
<circle id="grid_3_pt" cx="1493.25" cy="1767.75" r="8" fill="#e74c3c" stroke="#e74c3c" stroke-width="2"/>
<rect id="feat_3_1" x="1770" y="1625" width="70" height="75" rx="0" ry="0" fill="#dae8fc" fill-opacity="1" stroke="#6c8ebf" stroke-width="4"/>
<rect id="feat_3_2" x="1843" y="1625" width="70" height="75" rx="0" ry="0" fill="#eaf2ff" fill-opacity="1" stroke="#6c8ebf" stroke-width="4"/>
<line id="grid_feat_arrow_3" x1="1755" y1="1665" x2="1765" y2="1665" stroke="#222" stroke-width="4" marker-end="url(#arrow)"/>
<text id="hash_ellipsis" x="1525" y="1405" font-family="Arial, Helvetica, sans-serif" font-size="120" font-weight="700" font-style="normal" fill="#111" text-anchor="middle">
<tspan x="1525" dy="0">⋮</tspan>
</text>
<text id="feat_ellipsis" x="1850" y="1405" font-family="Arial, Helvetica, sans-serif" font-size="90" font-weight="700" font-style="normal" fill="#111" text-anchor="middle">
<tspan x="1850" dy="0">⋮</tspan>
</text>
<rect id="interp_neighbors" x="2020" y="760" width="430" height="620" rx="30" ry="30" fill="#ffffff" fill-opacity="1" stroke="#999999" stroke-width="4" stroke-dasharray="22 22"/>
<text id="interp_label" x="2235" y="860" font-family="Times New Roman, serif" font-size="50" font-weight="400" font-style="normal" fill="#111" text-anchor="middle">
<tspan x="2235" dy="0">8 neighboring</tspan>
<tspan x="2235" dy="60.0">lattice vertices</tspan>
<tspan x="2235" dy="60.0">(for interpolation)</tspan>
</text>
<circle id="v_2120_1100" cx="2120" cy="1100" r="16" fill="#3c78b5" stroke="#1f4e79" stroke-width="3"/>
<circle id="v_2360_1100" cx="2360" cy="1100" r="16" fill="#3c78b5" stroke="#1f4e79" stroke-width="3"/>
<circle id="v_2120_1320" cx="2120" cy="1320" r="16" fill="#3c78b5" stroke="#1f4e79" stroke-width="3"/>
<circle id="v_2360_1320" cx="2360" cy="1320" r="16" fill="#3c78b5" stroke="#1f4e79" stroke-width="3"/>
<circle id="v_2175_1035" cx="2175" cy="1035" r="16" fill="#3c78b5" stroke="#1f4e79" stroke-width="3"/>
<circle id="v_2415_1035" cx="2415" cy="1035" r="16" fill="#3c78b5" stroke="#1f4e79" stroke-width="3"/>
<circle id="v_2175_1255" cx="2175" cy="1255" r="16" fill="#3c78b5" stroke="#1f4e79" stroke-width="3"/>
<circle id="v_2415_1255" cx="2415" cy="1255" r="16" fill="#3c78b5" stroke="#1f4e79" stroke-width="3"/>
<path id="interp_cube1" d="M2120 1100 L2360 1100 L2360 1320 L2120 1320 Z" fill="none" stroke="#3c78b5" stroke-width="4" stroke-dasharray="12 8"/>
<path id="interp_cube2" d="M2175 1035 L2415 1035 L2415 1255 L2175 1255 Z" fill="none" stroke="#3c78b5" stroke-width="4" stroke-dasharray="12 8"/>
<line id="interp_edge1" x1="2120" y1="1100" x2="2175" y2="1035" stroke="#3c78b5" stroke-width="3"/>
<line id="interp_edge2" x1="2360" y1="1100" x2="2415" y2="1035" stroke="#3c78b5" stroke-width="3"/>
<line id="interp_edge3" x1="2360" y1="1320" x2="2415" y2="1255" stroke="#3c78b5" stroke-width="3"/>
<line id="interp_edge4" x1="2120" y1="1320" x2="2175" y2="1255" stroke="#3c78b5" stroke-width="3"/>
<circle id="p_hat_dot" cx="2255" cy="1180" r="14" fill="#e74c3c" stroke="#e74c3c" stroke-width="3"/>
<text id="p_hat_txt" x="2285" y="1210" font-family="STIX Two Math, Cambria Math, Times New Roman, serif" font-size="52" font-weight="400" font-style="italic" fill="#111" text-anchor="middle">
<tspan x="2285" dy="0">p̂</tspan>
</text>
<text id="local_basis" x="2225" y="1490" font-family="Times New Roman, serif" font-size="54" font-weight="400" font-style="normal" fill="#111" text-anchor="middle">
<tspan x="2225" dy="0">multiscale</tspan>
<tspan x="2225" dy="64.8">local basis</tspan>
</text>
<line id="desc_arrow" x1="1885" y1="1625" x2="1885" y2="1850" stroke="#222" stroke-width="4" marker-end="url(#arrow)"/>
<rect id="desc_0" x="1260" y="1850" width="68" height="78" rx="0" ry="0" fill="#f6fbff" fill-opacity="1" stroke="#6c8ebf" stroke-width="3"/>
<rect id="desc_1" x="1334" y="1850" width="68" height="78" rx="0" ry="0" fill="#dae8fc" fill-opacity="1" stroke="#6c8ebf" stroke-width="3"/>
<rect id="desc_2" x="1408" y="1850" width="68" height="78" rx="0" ry="0" fill="#f6fbff" fill-opacity="1" stroke="#6c8ebf" stroke-width="3"/>
<rect id="desc_3" x="1482" y="1850" width="68" height="78" rx="0" ry="0" fill="#dae8fc" fill-opacity="1" stroke="#6c8ebf" stroke-width="3"/>
<rect id="desc_4" x="1556" y="1850" width="68" height="78" rx="0" ry="0" fill="#f6fbff" fill-opacity="1" stroke="#6c8ebf" stroke-width="3"/>
<rect id="desc_5" x="1630" y="1850" width="68" height="78" rx="0" ry="0" fill="#dae8fc" fill-opacity="1" stroke="#6c8ebf" stroke-width="3"/>
<rect id="desc_6" x="1704" y="1850" width="68" height="78" rx="0" ry="0" fill="#f6fbff" fill-opacity="1" stroke="#6c8ebf" stroke-width="3"/>
<rect id="desc_7" x="1778" y="1850" width="68" height="78" rx="0" ry="0" fill="#dae8fc" fill-opacity="1" stroke="#6c8ebf" stroke-width="3"/>
<rect id="desc_8" x="1852" y="1850" width="68" height="78" rx="0" ry="0" fill="#f6fbff" fill-opacity="1" stroke="#6c8ebf" stroke-width="3"/>
<rect id="desc_9" x="1926" y="1850" width="68" height="78" rx="0" ry="0" fill="#dae8fc" fill-opacity="1" stroke="#6c8ebf" stroke-width="3"/>
<rect id="desc_10" x="2000" y="1850" width="68" height="78" rx="0" ry="0" fill="#f6fbff" fill-opacity="1" stroke="#6c8ebf" stroke-width="3"/>
<rect id="desc_11" x="2074" y="1850" width="68" height="78" rx="0" ry="0" fill="#dae8fc" fill-opacity="1" stroke="#6c8ebf" stroke-width="3"/>
<rect id="desc_12" x="2148" y="1850" width="68" height="78" rx="0" ry="0" fill="#f6fbff" fill-opacity="1" stroke="#6c8ebf" stroke-width="3"/>
<rect id="desc_13" x="2222" y="1850" width="68" height="78" rx="0" ry="0" fill="#dae8fc" fill-opacity="1" stroke="#6c8ebf" stroke-width="3"/>
<rect id="desc_14" x="2296" y="1850" width="68" height="78" rx="0" ry="0" fill="#f6fbff" fill-opacity="1" stroke="#6c8ebf" stroke-width="3"/>
<rect id="desc_15" x="2370" y="1850" width="68" height="78" rx="0" ry="0" fill="#dae8fc" fill-opacity="1" stroke="#6c8ebf" stroke-width="3"/>
<text id="desc_label" x="1855" y="2035" font-family="Times New Roman, serif" font-size="56" font-weight="400" font-style="normal" fill="#111" text-anchor="middle">
<tspan x="1855" dy="0">32-d concatenated descriptor</tspan>
</text>
<line id="norm_hash_arrow" x1="1060" y1="1045" x2="1260" y2="1045" stroke="#222" stroke-width="5" marker-end="url(#arrow)"/>
<text id="decoder_title" x="2820" y="420" font-family="Times New Roman, serif" font-size="58" font-weight="700" font-style="normal" fill="#111" text-anchor="middle">
<tspan x="2820" dy="0">Lightweight decoder</tspan>
<tspan x="2820" dy="69.6">(2 hidden layers, 64 neurons, SiLU)</tspan>
</text>
<text id="decoder_64_1" x="2775" y="650" font-family="Times New Roman, serif" font-size="54" font-weight="400" font-style="normal" fill="#111" text-anchor="middle">
<tspan x="2775" dy="0">64</tspan>
</text>
<text id="decoder_64_2" x="3060" y="650" font-family="Times New Roman, serif" font-size="54" font-weight="400" font-style="normal" fill="#111" text-anchor="middle">
<tspan x="3060" dy="0">64</tspan>
</text>
<circle id="neuron_0_0" cx="2760" cy="790" r="65" fill="#dae8fc" stroke="#6c8ebf" stroke-width="4"/>
<circle id="neuron_0_1" cx="2760" cy="965" r="65" fill="#dae8fc" stroke="#6c8ebf" stroke-width="4"/>
<circle id="neuron_0_2" cx="2760" cy="1140" r="65" fill="#dae8fc" stroke="#6c8ebf" stroke-width="4"/>
<circle id="neuron_0_3" cx="2760" cy="1315" r="65" fill="#dae8fc" stroke="#6c8ebf" stroke-width="4"/>
<text id="neuron_dots_0" x="2760" y="1480" font-family="Arial, Helvetica, sans-serif" font-size="70" font-weight="400" font-style="normal" fill="#111" text-anchor="middle">
<tspan x="2760" dy="0">⋮</tspan>
</text>
<circle id="neuron_1_0" cx="3060" cy="790" r="65" fill="#dae8fc" stroke="#6c8ebf" stroke-width="4"/>
<circle id="neuron_1_1" cx="3060" cy="965" r="65" fill="#dae8fc" stroke="#6c8ebf" stroke-width="4"/>
<circle id="neuron_1_2" cx="3060" cy="1140" r="65" fill="#dae8fc" stroke="#6c8ebf" stroke-width="4"/>
<circle id="neuron_1_3" cx="3060" cy="1315" r="65" fill="#dae8fc" stroke="#6c8ebf" stroke-width="4"/>
<text id="neuron_dots_1" x="3060" y="1480" font-family="Arial, Helvetica, sans-serif" font-size="70" font-weight="400" font-style="normal" fill="#111" text-anchor="middle">
<tspan x="3060" dy="0">⋮</tspan>
</text>
<line id="mlp_790_790" x1="2825" y1="790" x2="2995" y2="790" stroke="#333" stroke-width="2"/>
<line id="mlp_790_965" x1="2825" y1="790" x2="2995" y2="965" stroke="#333" stroke-width="2"/>
<line id="mlp_790_1140" x1="2825" y1="790" x2="2995" y2="1140" stroke="#333" stroke-width="2"/>
<line id="mlp_790_1315" x1="2825" y1="790" x2="2995" y2="1315" stroke="#333" stroke-width="2"/>
<line id="mlp_965_790" x1="2825" y1="965" x2="2995" y2="790" stroke="#333" stroke-width="2"/>
<line id="mlp_965_965" x1="2825" y1="965" x2="2995" y2="965" stroke="#333" stroke-width="2"/>
<line id="mlp_965_1140" x1="2825" y1="965" x2="2995" y2="1140" stroke="#333" stroke-width="2"/>
<line id="mlp_965_1315" x1="2825" y1="965" x2="2995" y2="1315" stroke="#333" stroke-width="2"/>
<line id="mlp_1140_790" x1="2825" y1="1140" x2="2995" y2="790" stroke="#333" stroke-width="2"/>
<line id="mlp_1140_965" x1="2825" y1="1140" x2="2995" y2="965" stroke="#333" stroke-width="2"/>
<line id="mlp_1140_1140" x1="2825" y1="1140" x2="2995" y2="1140" stroke="#333" stroke-width="2"/>
<line id="mlp_1140_1315" x1="2825" y1="1140" x2="2995" y2="1315" stroke="#333" stroke-width="2"/>
<line id="mlp_1315_790" x1="2825" y1="1315" x2="2995" y2="790" stroke="#333" stroke-width="2"/>
<line id="mlp_1315_965" x1="2825" y1="1315" x2="2995" y2="965" stroke="#333" stroke-width="2"/>
<line id="mlp_1315_1140" x1="2825" y1="1315" x2="2995" y2="1140" stroke="#333" stroke-width="2"/>
<line id="mlp_1315_1315" x1="2825" y1="1315" x2="2995" y2="1315" stroke="#333" stroke-width="2"/>
<line id="desc_to_mlp" x1="2450" y1="1180" x2="2690" y2="965" stroke="#222" stroke-width="4" marker-end="url(#arrow)"/>
<line id="desc_to_mlp2" x1="2450" y1="1180" x2="2690" y2="1315" stroke="#222" stroke-width="4" marker-end="url(#arrow)"/>
<circle id="phi_out" cx="3370" cy="1050" r="135" fill="#f8cecc" stroke="#d46a6a" stroke-width="5"/>
<text id="phi_txt" x="3370" y="1075" font-family="STIX Two Math, Cambria Math, Times New Roman, serif" font-size="74" font-weight="400" font-style="italic" fill="#111" text-anchor="middle">
<tspan x="3370" dy="0">Φ(p; θ)</tspan>
</text>
<text id="phi_label" x="3370" y="1240" font-family="Times New Roman, serif" font-size="52" font-weight="400" font-style="normal" fill="#111" text-anchor="middle">
<tspan x="3370" dy="0">normalized</tspan>
<tspan x="3370" dy="62.4">residual</tspan>
<tspan x="3370" dy="62.4">correction</tspan>
</text>
<line id="mlp_phi1" x1="3125" y1="965" x2="3235" y2="1050" stroke="#222" stroke-width="5" marker-end="url(#arrow)"/>
<line id="mlp_phi2" x1="3125" y1="1315" x2="3235" y2="1050" stroke="#222" stroke-width="5" marker-end="url(#arrow)"/>
<circle id="gggf_node" cx="4020" cy="555" r="115" fill="#fff2cc" stroke="#e0b13a" stroke-width="5"/>
<text id="gggf_txt" x="4020" y="580" font-family="STIX Two Math, Cambria Math, Times New Roman, serif" font-size="62" font-weight="400" font-style="italic" fill="#111" text-anchor="middle">
<tspan x="4020" dy="0">u_GGGF(p)</tspan>
</text>
<text id="gggf_label" x="4305" y="545" font-family="Times New Roman, serif" font-size="55" font-weight="400" font-style="normal" fill="#111" text-anchor="start">
<tspan x="4305" dy="0">Global Geometric</tspan>
<tspan x="4305" dy="66.0">Guidance Field</tspan>
</text>
<circle id="dist_node" cx="4020" cy="890" r="85" fill="#fff2cc" stroke="#e0b13a" stroke-width="5"/>
<text id="dist_txt" x="4020" y="912" font-family="STIX Two Math, Cambria Math, Times New Roman, serif" font-size="82" font-weight="400" font-style="italic" fill="#111" text-anchor="middle">
<tspan x="4020" dy="0">d</tspan>
</text>
<text id="dist_label" x="4115" y="910" font-family="Times New Roman, serif" font-size="48" font-weight="400" font-style="normal" fill="#111" text-anchor="start">
<tspan x="4115" dy="0">distance to</tspan>
<tspan x="4115" dy="57.599999999999994">inner boundary</tspan>
</text>
<rect id="fd_box" x="4380" y="800" width="530" height="160" rx="28" ry="28" fill="#fff2cc" fill-opacity="1" stroke="#e0b13a" stroke-width="5"/>
<text id="fd_formula" x="4645" y="880" font-family="STIX Two Math, Cambria Math, Times New Roman, serif" font-size="64" font-weight="400" font-style="italic" fill="#111" text-anchor="middle">
<tspan x="4645" dy="0">f(d) = 1 − exp(−αd)</tspan>
</text>
<text id="fd_caption" x="4645" y="945" font-family="Times New Roman, serif" font-size="42" font-weight="400" font-style="normal" fill="#111" text-anchor="middle">
<tspan x="4645" dy="0">distance modulation</tspan>
</text>
<rect id="upred_box" x="4360" y="1130" width="1220" height="230" rx="28" ry="28" fill="#f5f5f5" fill-opacity="1" stroke="#999999" stroke-width="5"/>
<text id="upred_formula" x="4970" y="1255" font-family="STIX Two Math, Cambria Math, Times New Roman, serif" font-size="70" font-weight="400" font-style="italic" fill="#111" text-anchor="middle">
<tspan x="4970" dy="0">u_pred(p) = γ u_GGGF(p) + f(d) Φ(p; θ)</tspan>
</text>
<rect id="hard_note" x="4540" y="1465" width="870" height="280" rx="28" ry="28" fill="#ffffff" fill-opacity="1" stroke="#9673a6" stroke-width="5" stroke-dasharray="24 18"/>
<text id="hard_note_txt" x="4975" y="1545" font-family="Times New Roman, serif" font-size="54" font-weight="400" font-style="normal" fill="#111" text-anchor="middle">
<tspan x="4975" dy="0">Hard boundary constraint:</tspan>
<tspan x="4975" dy="64.8">as d → 0, residual vanishes and</tspan>
<tspan x="4975" dy="64.8">near-wall orthogonality is enforced.</tspan>
</text>
<line id="phi_to_upred" x1="3505" y1="1050" x2="4360" y2="1230" stroke="#222" stroke-width="5" marker-end="url(#arrow)"/>
<line id="gggf_to_upred" x1="4105" y1="630" x2="4360" y2="1190" stroke="#222" stroke-width="5" marker-end="url(#arrow)"/>
<line id="dist_to_fd" x1="4105" y1="890" x2="4380" y2="880" stroke="#222" stroke-width="5" marker-end="url(#arrow)"/>
<line id="fd_to_upred" x1="4645" y1="960" x2="4645" y2="1130" stroke="#222" stroke-width="5" marker-end="url(#arrow)"/>
<rect id="smooth_box" x="3950" y="1830" width="1200" height="440" rx="28" ry="28" fill="#ffffff" fill-opacity="1" stroke="#9673a6" stroke-width="5" stroke-dasharray="24 18"/>
<text id="smooth_title" x="4550" y="1915" font-family="Times New Roman, serif" font-size="58" font-weight="700" font-style="normal" fill="#111" text-anchor="middle">
<tspan x="4550" dy="0">C²-compatible interpolation</tspan>
</text>
<text id="smooth_formula" x="4550" y="2000" font-family="STIX Two Math, Cambria Math, Times New Roman, serif" font-size="62" font-weight="400" font-style="italic" fill="#111" text-anchor="middle">
<tspan x="4550" dy="0">S₂(t) = 6t⁵ − 15t⁴ + 10t³</tspan>
</text>
<line id="plot_x" x1="4160" y1="2170" x2="4910" y2="2170" stroke="#222" stroke-width="4" marker-end="url(#arrow)"/>
<line id="plot_y" x1="4160" y1="2170" x2="4160" y2="2040" stroke="#222" stroke-width="4" marker-end="url(#arrow)"/>
<path id="smooth_curve" d="M4160 2160 C4300 2160 4380 2160 4465 2110 C4555 2055 4625 1990 4750 1990 C4840 1990 4890 1990 4910 1990" fill="none" stroke="#7e57c2" stroke-width="8"/>
<text id="plot_0" x="4155" y="2240" font-family="Times New Roman, serif" font-size="42" font-weight="400" font-style="normal" fill="#111" text-anchor="middle">
<tspan x="4155" dy="0">0</tspan>
</text>
<text id="plot_1x" x="4910" y="2240" font-family="Times New Roman, serif" font-size="42" font-weight="400" font-style="normal" fill="#111" text-anchor="middle">
<tspan x="4910" dy="0">1</tspan>
</text>
<text id="plot_t" x="4550" y="2240" font-family="Times New Roman, serif" font-size="42" font-weight="400" font-style="italic" fill="#111" text-anchor="middle">
<tspan x="4550" dy="0">t</tspan>
</text>
<text id="smooth_caption" x="4550" y="2295" font-family="Times New Roman, serif" font-size="46" font-weight="400" font-style="normal" fill="#111" text-anchor="middle">
<tspan x="4550" dy="0">replaces linear interpolation in HashGrid</tspan>
</text>
<rect id="bc_loss" x="5800" y="450" width="760" height="520" rx="30" ry="30" fill="#f5f5f5" fill-opacity="1" stroke="#999999" stroke-width="5"/>
<text id="bc_title" x="6180" y="560" font-family="Times New Roman, serif" font-size="62" font-weight="700" font-style="normal" fill="#111" text-anchor="middle">
<tspan x="6180" dy="0">Boundary cosine loss</tspan>
</text>
<text id="bc_desc" x="6180" y="680" font-family="Times New Roman, serif" font-size="52" font-weight="400" font-style="normal" fill="#111" text-anchor="middle">
<tspan x="6180" dy="0">align with inner-wall and</tspan>
<tspan x="6180" dy="62.4">outer-boundary directions</tspan>
</text>
<text id="bc_formula" x="6180" y="850" font-family="STIX Two Math, Cambria Math, Times New Roman, serif" font-size="60" font-weight="400" font-style="italic" fill="#111" text-anchor="middle">
<tspan x="6180" dy="0">L_bc = 1 − cos(u_pred, n_b)</tspan>
</text>
<rect id="lap_loss" x="5800" y="1230" width="760" height="660" rx="30" ry="30" fill="#f5f5f5" fill-opacity="1" stroke="#999999" stroke-width="5"/>
<text id="lap_title" x="6180" y="1350" font-family="Times New Roman, serif" font-size="62" font-weight="700" font-style="normal" fill="#111" text-anchor="middle">
<tspan x="6180" dy="0">Laplacian smoothing</tspan>
</text>
<text id="lap_formula" x="6180" y="1505" font-family="STIX Two Math, Cambria Math, Times New Roman, serif" font-size="66" font-weight="400" font-style="italic" fill="#111" text-anchor="middle">
<tspan x="6180" dy="0">L_lap = ||∇²u_pred||²</tspan>
</text>
<text id="lap_desc" x="6180" y="1640" font-family="Times New Roman, serif" font-size="52" font-weight="400" font-style="normal" fill="#111" text-anchor="middle">
<tspan x="6180" dy="0">finite differences on</tspan>
<tspan x="6180" dy="62.4">interior samples</tspan>
</text>
<circle id="stencil_c" cx="6180" cy="1770" r="20" fill="#7e57c2" stroke="#5e35b1" stroke-width="3"/>
<line id="sten_line_0" x1="6180" y1="1770" x2="6180" y2="1670" stroke="#555" stroke-width="3" stroke-dasharray="10 8"/>
<circle id="sten_pt_0" cx="6180" cy="1670" r="20" fill="#ffd966" stroke="#b58b00" stroke-width="3"/>
<line id="sten_line_1" x1="6180" y1="1770" x2="6180" y2="1870" stroke="#555" stroke-width="3" stroke-dasharray="10 8"/>
<circle id="sten_pt_1" cx="6180" cy="1870" r="20" fill="#ffd966" stroke="#b58b00" stroke-width="3"/>
<line id="sten_line_2" x1="6180" y1="1770" x2="6080" y2="1770" stroke="#555" stroke-width="3" stroke-dasharray="10 8"/>
<circle id="sten_pt_2" cx="6080" cy="1770" r="20" fill="#ffd966" stroke="#b58b00" stroke-width="3"/>
<line id="sten_line_3" x1="6180" y1="1770" x2="6280" y2="1770" stroke="#555" stroke-width="3" stroke-dasharray="10 8"/>
<circle id="sten_pt_3" cx="6280" cy="1770" r="20" fill="#ffd966" stroke="#b58b00" stroke-width="3"/>
<line id="sten_line_4" x1="6180" y1="1770" x2="6105" y2="1695" stroke="#555" stroke-width="3" stroke-dasharray="10 8"/>
<circle id="sten_pt_4" cx="6105" cy="1695" r="20" fill="#ffd966" stroke="#b58b00" stroke-width="3"/>
<line id="sten_line_5" x1="6180" y1="1770" x2="6255" y2="1845" stroke="#555" stroke-width="3" stroke-dasharray="10 8"/>
<circle id="sten_pt_5" cx="6255" cy="1845" r="20" fill="#ffd966" stroke="#b58b00" stroke-width="3"/>
<rect id="total_loss" x="6780" y="1050" width="560" height="260" rx="28" ry="28" fill="#f5f5f5" fill-opacity="1" stroke="#999999" stroke-width="5"/>
<text id="total_formula" x="7060" y="1180" font-family="STIX Two Math, Cambria Math, Times New Roman, serif" font-size="58" font-weight="400" font-style="italic" fill="#111" text-anchor="middle">
<tspan x="7060" dy="0">L_total = a₀L_bc + a₁L_lap</tspan>
</text>
<rect id="theta_box" x="7420" y="1110" width="160" height="160" rx="28" ry="28" fill="#e1d5e7" fill-opacity="1" stroke="#9673a6" stroke-width="5"/>
<text id="theta_txt" x="7500" y="1210" font-family="STIX Two Math, Cambria Math, Times New Roman, serif" font-size="72" font-weight="400" font-style="italic" fill="#111" text-anchor="middle">
<tspan x="7500" dy="0">θ</tspan>
</text>
<text id="theta_label" x="7500" y="1365" font-family="Times New Roman, serif" font-size="48" font-weight="400" font-style="normal" fill="#111" text-anchor="middle">
<tspan x="7500" dy="0">optimize</tspan>
<tspan x="7500" dy="57.599999999999994">network</tspan>
<tspan x="7500" dy="57.599999999999994">parameters</tspan>
</text>
<line id="upred_to_bc" x1="5580" y1="1180" x2="5800" y2="710" stroke="#222" stroke-width="5" marker-end="url(#arrow)"/>
<line id="upred_to_lap" x1="5580" y1="1255" x2="5800" y2="1500" stroke="#222" stroke-width="5" marker-end="url(#arrow)"/>
<line id="smooth_to_lap" x1="5150" y1="2050" x2="5800" y2="1580" stroke="#9673a6" stroke-width="5" stroke-dasharray="24 18" marker-end="url(#arrow)"/>
<line id="bc_to_total" x1="6560" y1="710" x2="6780" y2="1130" stroke="#222" stroke-width="5" marker-end="url(#arrow)"/>
<line id="lap_to_total" x1="6560" y1="1500" x2="6780" y2="1230" stroke="#222" stroke-width="5" marker-end="url(#arrow)"/>
<line id="total_to_theta" x1="7340" y1="1180" x2="7420" y2="1180" stroke="#222" stroke-width="5" marker-end="url(#arrow)"/>
<path id="stage_input" d="M 110 2390 L 720 2390 L 760 2485.0 L 720 2580 L 110 2580 L 150 2485.0 Z" fill="#fff2cc" stroke="#e0b13a" stroke-width="3"/>
<text id="stage_input_txt" x="445.0" y="2503.0" font-family="Arial, Helvetica, sans-serif" font-size="56" font-weight="400" font-style="normal" fill="#111" text-anchor="middle">
<tspan x="445.0" dy="0">Input point</tspan>
</text>
<path id="stage_hash" d="M 770 2390 L 1680 2390 L 1720 2485.0 L 1680 2580 L 770 2580 L 810 2485.0 Z" fill="#dae8fc" stroke="#6c8ebf" stroke-width="3"/>
<text id="stage_hash_txt" x="1255.0" y="2503.0" font-family="Arial, Helvetica, sans-serif" font-size="56" font-weight="400" font-style="normal" fill="#111" text-anchor="middle">
<tspan x="1255.0" dy="0">HashGrid encoder</tspan>
</text>
<path id="stage_dec" d="M 1710 2390 L 2610 2390 L 2650 2485.0 L 2610 2580 L 1710 2580 L 1750 2485.0 Z" fill="#dae8fc" stroke="#6c8ebf" stroke-width="3"/>
<text id="stage_dec_txt" x="2190.0" y="2503.0" font-family="Arial, Helvetica, sans-serif" font-size="56" font-weight="400" font-style="normal" fill="#111" text-anchor="middle">
<tspan x="2190.0" dy="0">Lightweight decoder</tspan>
</text>
<path id="stage_res" d="M 2640 2390 L 3500 2390 L 3540 2485.0 L 3500 2580 L 2640 2580 L 2680 2485.0 Z" fill="#f8cecc" stroke="#d46a6a" stroke-width="3"/>
<text id="stage_res_txt" x="3100.0" y="2503.0" font-family="Arial, Helvetica, sans-serif" font-size="56" font-weight="400" font-style="normal" fill="#111" text-anchor="middle">
<tspan x="3100.0" dy="0">Residual field</tspan>
</text>
<path id="stage_bi" d="M 3830 2390 L 4690 2390 L 4730 2485.0 L 4690 2580 L 3830 2580 L 3870 2485.0 Z" fill="#fff2cc" stroke="#e0b13a" stroke-width="3"/>
<text id="stage_bi_txt" x="4290.0" y="2503.0" font-family="Arial, Helvetica, sans-serif" font-size="50" font-weight="400" font-style="normal" fill="#111" text-anchor="middle">
<tspan x="4290.0" dy="0">Boundary-informed</tspan>
<tspan x="4290.0" dy="60.0">formulation</tspan>
</text>
<path id="stage_reg" d="M 4720 2390 L 5640 2390 L 5680 2485.0 L 5640 2580 L 4720 2580 L 4760 2485.0 Z" fill="#dae8fc" stroke="#6c8ebf" stroke-width="3"/>
<text id="stage_reg_txt" x="5210.0" y="2503.0" font-family="Arial, Helvetica, sans-serif" font-size="56" font-weight="400" font-style="normal" fill="#111" text-anchor="middle">
<tspan x="5210.0" dy="0">Regularization</tspan>
</text>
<path id="stage_loss" d="M 5680 2390 L 6540 2390 L 6580 2485.0 L 6540 2580 L 5680 2580 L 5720 2485.0 Z" fill="#f5f5f5" stroke="#999999" stroke-width="3"/>
<text id="stage_loss_txt" x="6140.0" y="2503.0" font-family="Arial, Helvetica, sans-serif" font-size="56" font-weight="400" font-style="normal" fill="#111" text-anchor="middle">
<tspan x="6140.0" dy="0">Loss function</tspan>
</text>
<path id="stage_opt" d="M 6580 2390 L 7440 2390 L 7480 2485.0 L 7440 2580 L 6580 2580 L 6620 2485.0 Z" fill="#e1d5e7" stroke="#9673a6" stroke-width="3"/>
<text id="stage_opt_txt" x="7040.0" y="2503.0" font-family="Arial, Helvetica, sans-serif" font-size="50" font-weight="400" font-style="normal" fill="#111" text-anchor="middle">
<tspan x="7040.0" dy="0">Optimization</tspan>
<tspan x="7040.0" dy="60.0">parameters</tspan>
</text>
<rect id="footer" x="60" y="2700" width="7560" height="530" rx="55" ry="55" fill="#fffaf2" fill-opacity="1" stroke="#888888" stroke-width="4"/>
<line id="footer_sep_1490" x1="1490" y1="2760" x2="1490" y2="3170" stroke="#999" stroke-width="3"/>
<line id="footer_sep_3000" x1="3000" y1="2760" x2="3000" y2="3170" stroke="#999" stroke-width="3"/>
<line id="footer_sep_4520" x1="4520" y1="2760" x2="4520" y2="3170" stroke="#999" stroke-width="3"/>
<line id="footer_sep_5930" x1="5930" y1="2760" x2="5930" y2="3170" stroke="#999" stroke-width="3"/>
<rect id="foot_cube_front" x="140" y="2857.0" width="120" height="120" rx="0" ry="0" fill="none" fill-opacity="1" stroke="#3c78b5" stroke-width="4"/>
<path id="foot_cube_top" d="M140 2857.0 L182.0 2815 L302.0 2815 L260 2857.0" fill="none" stroke="#3c78b5" stroke-width="4"/>
<path id="foot_cube_side" d="M260 2857.0 L302.0 2815 L302.0 2935 L260 2977.0" fill="none" stroke="#3c78b5" stroke-width="4"/>
<line id="foot_cube_gv1" x1="200.0" y1="2857.0" x2="200.0" y2="2977.0" stroke="#3c78b5" stroke-width="2"/>
<line id="foot_cube_gh1" x1="140" y1="2917.0" x2="260" y2="2917.0" stroke="#3c78b5" stroke-width="2"/>
<circle id="foot_cube_pt" cx="206.0" cy="2917.0" r="8" fill="#e74c3c" stroke="#e74c3c" stroke-width="2"/>
<rect id="foot_cube2_front" x="320" y="2888.0" width="80" height="80" rx="0" ry="0" fill="none" fill-opacity="1" stroke="#3c78b5" stroke-width="4"/>
<path id="foot_cube2_top" d="M320 2888.0 L348.0 2860 L428.0 2860 L400 2888.0" fill="none" stroke="#3c78b5" stroke-width="4"/>
<path id="foot_cube2_side" d="M400 2888.0 L428.0 2860 L428.0 2940 L400 2968.0" fill="none" stroke="#3c78b5" stroke-width="4"/>
<line id="foot_cube2_gv1" x1="360.0" y1="2888.0" x2="360.0" y2="2968.0" stroke="#3c78b5" stroke-width="2"/>
<line id="foot_cube2_gh1" x1="320" y1="2928.0" x2="400" y2="2928.0" stroke="#3c78b5" stroke-width="2"/>
<circle id="foot_cube2_pt" cx="364.0" cy="2928.0" r="8" fill="#e74c3c" stroke="#e74c3c" stroke-width="2"/>
<text id="foot_1" x="700" y="2860" font-family="Times New Roman, serif" font-size="54" font-weight="400" font-style="normal" fill="#111" text-anchor="start">
<tspan x="700" dy="0">Multiresolution HashGrid replaces</tspan>
<tspan x="700" dy="64.8">deep global MLP for localized,</tspan>
<tspan x="700" dy="64.8">compact representation.</tspan>
</text>
<path id="foot_curve" d="M1660 3060 C1730 2950 1760 2820 1900 2805 C2030 2790 2080 2880 2105 2960" fill="none" stroke="#ef6b6b" stroke-width="8"/>
<rect id="foot_gridicon" x="1660" y="2870" width="280" height="210" rx="0" ry="0" fill="none" fill-opacity="1" stroke="#555" stroke-width="4"/>
<circle id="foot_mag" cx="2060" cy="2835" r="60" fill="none" stroke="#555" stroke-width="8"/>
<line id="foot_mag_handle" x1="2105" y1="2880" x2="2170" y2="2945" stroke="#555" stroke-width="8"/>
<text id="foot_2" x="2250" y="2860" font-family="Times New Roman, serif" font-size="54" font-weight="400" font-style="normal" fill="#111" text-anchor="start">
<tspan x="2250" dy="0">Captures sharp curvature variation</tspan>
<tspan x="2250" dy="64.8">and localized CAD boundary-</tspan>
<tspan x="2250" dy="64.8">layer features.</tspan>
</text>
<path id="foot_osc" d="M3120 2980 C3180 2870 3250 3090 3315 2980 C3380 2870 3450 3090 3510 2980" fill="none" stroke="#7e57c2" stroke-width="8"/>
<line id="foot_axisx" x1="3080" y1="3110" x2="3580" y2="3110" stroke="#333" stroke-width="4" marker-end="url(#arrow)"/>
<line id="foot_axisy" x1="3080" y1="3110" x2="3080" y2="2820" stroke="#333" stroke-width="4" marker-end="url(#arrow)"/>
<text id="foot_3" x="3660" y="2860" font-family="Times New Roman, serif" font-size="54" font-weight="400" font-style="normal" fill="#111" text-anchor="start">
<tspan x="3660" dy="0">Hash-induced numerical oscillations</tspan>
<tspan x="3660" dy="64.8">are suppressed by Laplacian</tspan>
<tspan x="3660" dy="64.8">regularization.</tspan>
</text>
<line id="foot_sx" x1="4630" y1="3110" x2="5130" y2="3110" stroke="#333" stroke-width="4" marker-end="url(#arrow)"/>
<line id="foot_sy" x1="4630" y1="3110" x2="4630" y2="2820" stroke="#333" stroke-width="4" marker-end="url(#arrow)"/>
<path id="foot_scurve" d="M4630 3090 C4750 3090 4820 3090 4890 2990 C4960 2890 5030 2860 5130 2860" fill="none" stroke="#7e57c2" stroke-width="8"/>
<text id="foot_4" x="5270" y="2860" font-family="Times New Roman, serif" font-size="54" font-weight="400" font-style="normal" fill="#111" text-anchor="start">
<tspan x="5270" dy="0">Fifth-order smootherstep interpolation</tspan>
<tspan x="5270" dy="64.8">ensures C² compatibility for second-</tspan>
<tspan x="5270" dy="64.8">order smoothness.</tspan>
</text>
<rect id="foot_wall" x="6060" y="2825" width="70" height="330" rx="0" ry="0" fill="#eeeeee" fill-opacity="1" stroke="#555" stroke-width="4"/>
<path id="foot_field_0" d="M6130 3130 C6270 3100 6330 3000 6370 2860" fill="none" stroke="#7e57c2" stroke-width="5"/>
<path id="foot_field_1" d="M6130 3075 C6270 3030 6330 2945 6370 2840" fill="none" stroke="#7e57c2" stroke-width="5"/>
<path id="foot_field_2" d="M6130 3020 C6270 2960 6330 2890 6370 2820" fill="none" stroke="#7e57c2" stroke-width="5"/>
<path id="foot_field_3" d="M6130 2965 C6270 2890 6330 2835 6370 2800" fill="none" stroke="#7e57c2" stroke-width="5"/>
<path id="foot_field_4" d="M6130 2910 C6270 2820 6330 2780 6370 2780" fill="none" stroke="#7e57c2" stroke-width="5"/>
<text id="foot_5" x="6480" y="2860" font-family="Times New Roman, serif" font-size="54" font-weight="400" font-style="normal" fill="#111" text-anchor="start">
<tspan x="6480" dy="0">Output is a smooth, boundary-</tspan>
<tspan x="6480" dy="64.8">constrained growth-direction field</tspan>
<tspan x="6480" dy="64.8">for anisotropic boundary-layer</tspan>
<tspan x="6480" dy="64.8">mesh generation.</tspan>
</text>
</svg>